<svg version="1.2" xmlns="http://www.w3.org/2000/svg" viewBox="0 0 389 389" width="389" height="389"><style>.a{fill:#e89f7e}</style><path class="a" d="m281.1 272.5c-2.9-10.5-5.7-23.5-8.4-37.7-2.8-14.3-5.6-29.9-9.4-45.4-5.2-20.9-12.5-41.9-24.3-60.5-11.9-18.8-28.2-33.7-45-47.2-15-12-30.9-22.7-47.5-32.2-2.6-1.6-5.2-3.3-7.8-5-19.4-11.9-39.4-22.7-59.9-32.3-2.3-1-4.6-1.9-6.9-2.8-1.6-0.6-2.5 0.7-1.2 1.7 1.3 1.2 2.7 2.4 4.3 3.4 3.5 2.2 7 4.3 10.7 6.2 25.8 13.9 51.5 27.9 76.5 43.2 0.9 0.5 1.8 1 2.6 1.6 10.7 8.2 21.8 16.2 32.3 24.8 10.5 8.6 20.5 18 28 29.2 4.6 5.4 8.5 11.4 11.8 17.7 3.3 6.2 6 12.8 8.4 19.4 1.4 3.8 3.1 7.5 4.5 11.3 3.8 10 7.4 20.1 8.9 30.8 0.3 2.4 1 5.1 1.8 7.5 3.1 9.8 4.2 19.9 5.8 30.1 2.3 15.2 5.4 30.5 9.8 45.5 2 7 4.6 13.7 6.5 20.7 0.5 1.9 1.2 3.8 2.1 5.7 0.8 2 1.8 3.9 2.7 5.8 4.2 8.6 9.1 16.8 14.9 24.4 0.7 0.8 1.3 1.7 1.9 2.5 3.4 4 7.2 7.6 11 11.1 3.9 3.3 8 6.6 12.4 9.4 4.3 2.9 9 5.2 13.7 7.4 4.8 1.9 9.7 3.7 14.8 4.7 1.1 0.2 2.5-0.1 3.3-0.5 0.3-0.1 0-0.9-0.6-1.2q-2-1.1-4.1-2.3c-1.3-0.7-2.7-1.5-4.1-2.1-16.5-6.4-30.2-18.3-40.9-32-12.3-15.9-21.4-34.3-28.6-62.9zm28.9-9.1c-2.9-10.5-5.7-23.5-8.4-37.8-2.7-14.2-5.5-29.8-9.4-45.3-5.2-21-12.5-41.9-24.2-60.6-11.9-18.7-28.2-33.7-45-47.1-15-12-31-22.8-47.5-32.3-2.7-1.5-5.3-3.3-7.9-4.9-19.3-12-39.3-22.7-59.8-32.3-2.3-1.1-4.6-2-6.9-2.8-1.6-0.6-2.5 0.6-1.3 1.7 1.4 1.1 2.8 2.4 4.4 3.4 3.4 2.1 7 4.2 10.6 6.2 25.9 13.8 51.6 27.9 76.5 43.1 0.9 0.6 1.9 1 2.6 1.6 10.8 8.3 21.8 16.2 32.4 24.8 10.5 8.6 20.5 18.1 28 29.2 4.6 5.5 8.5 11.5 11.8 17.7 3.3 6.3 6 12.8 8.4 19.5 1.3 3.7 3.1 7.5 4.5 11.3 3.8 9.9 7.3 20 8.8 30.8 0.4 2.4 1.1 5.1 1.8 7.4 3.2 9.9 4.2 19.9 5.8 30.1 2.4 15.2 5.4 30.5 9.8 45.5 2.1 7 4.6 13.7 6.5 20.8 0.5 1.8 1.3 3.8 2.2 5.7 0.8 1.9 1.7 3.9 2.7 5.8 4.1 8.5 9.1 16.7 14.9 24.4 0.6 0.8 1.2 1.7 1.9 2.5 3.4 3.9 7.1 7.5 10.9 11 4 3.4 8.1 6.7 12.5 9.4 4.3 2.9 8.9 5.3 13.7 7.4 4.8 2 9.7 3.7 14.8 4.8 1.1 0.2 2.5-0.2 3.2-0.5 0.4-0.2 0-0.9-0.6-1.3q-2-1.1-4-2.2c-1.4-0.8-2.7-1.6-4.2-2.1-16.4-6.5-30.1-18.3-40.9-32.1-12.3-15.8-21.3-34.2-28.6-62.8zm-98.4 24.7c-2.9-10.6-5.7-23.5-8.4-37.8-2.7-14.3-5.5-29.9-9.4-45.3-5.2-21-12.5-42-24.3-60.6-11.8-18.7-28.1-33.7-44.9-47.2-15-12-31-22.7-47.5-32.2-2.7-1.5-5.3-3.3-7.9-5-19.3-11.9-39.4-22.7-59.8-32.3-2.3-1-4.7-1.9-7-2.8-1.5-0.5-2.4 0.7-1.2 1.7 1.4 1.2 2.7 2.4 4.4 3.5 3.4 2.1 7 4.2 10.6 6.1 25.9 13.9 51.6 28 76.5 43.2 0.9 0.5 1.9 1 2.6 1.6 10.8 8.3 21.8 16.2 32.3 24.8 10.5 8.6 20.6 18 28.1 29.2 4.6 5.5 8.4 11.4 11.8 17.7 3.3 6.3 6 12.8 8.4 19.5 1.3 3.7 3.1 7.4 4.5 11.2 3.7 10 7.3 20.1 8.8 30.9 0.3 2.4 1.1 5.1 1.8 7.4 3.2 9.8 4.2 19.9 5.8 30.1 2.4 15.2 5.4 30.5 9.8 45.5 2.1 7 4.6 13.7 6.5 20.7 0.5 1.9 1.2 3.8 2.1 5.8 0.9 1.9 1.8 3.8 2.8 5.7 4.1 8.6 9.1 16.8 14.9 24.4 0.6 0.8 1.2 1.8 1.9 2.5 3.4 4 7.1 7.6 10.9 11.1 4 3.4 8 6.6 12.4 9.4 4.4 2.9 9 5.2 13.8 7.4 4.8 1.9 9.7 3.7 14.8 4.7 1.1 0.2 2.5-0.1 3.2-0.5 0.4-0.1 0-0.9-0.6-1.2q-2-1.1-4-2.3c-1.4-0.7-2.7-1.5-4.2-2.1-16.4-6.4-30.1-18.3-40.9-32-12.3-15.9-21.4-34.2-28.6-62.8zm29-9.2c-2.9-10.5-5.7-23.5-8.4-37.8-2.8-14.2-5.6-29.8-9.4-45.3-5.2-21-12.5-41.9-24.3-60.6-11.9-18.7-28.2-33.7-45-47.1-15-12-30.9-22.8-47.5-32.3-2.6-1.5-5.2-3.2-7.8-4.9-19.4-12-39.4-22.7-59.9-32.3-2.2-1.1-4.6-1.9-6.9-2.8-1.6-0.6-2.5 0.6-1.2 1.7 1.3 1.1 2.7 2.4 4.3 3.4 3.5 2.1 7 4.2 10.7 6.2 25.8 13.8 51.5 27.9 76.5 43.1 0.9 0.6 1.8 1 2.6 1.6 10.7 8.3 21.8 16.2 32.3 24.9 10.5 8.6 20.5 18 28 29.1 4.6 5.5 8.5 11.5 11.8 17.7 3.3 6.3 6 12.9 8.4 19.5 1.4 3.7 3.1 7.5 4.5 11.3 3.8 9.9 7.4 20 8.9 30.8 0.3 2.4 1 5.1 1.8 7.4 3.1 9.9 4.2 19.9 5.8 30.1 2.3 15.2 5.4 30.5 9.8 45.5 2 7 4.6 13.7 6.5 20.8 0.5 1.8 1.2 3.8 2.1 5.7 0.8 2 1.8 3.9 2.7 5.8 4.2 8.6 9.1 16.7 14.9 24.4 0.7 0.8 1.3 1.7 1.9 2.5 3.4 3.9 7.2 7.6 11 11.1 3.9 3.3 8 6.6 12.4 9.3 4.3 3 9 5.3 13.7 7.4 4.8 2 9.7 3.7 14.8 4.8 1.1 0.2 2.5-0.2 3.3-0.5 0.3-0.2 0-0.9-0.6-1.2q-2-1.2-4.1-2.3c-1.3-0.7-2.7-1.6-4.1-2.1-16.5-6.4-30.2-18.3-40.9-32-12.3-15.9-21.4-34.3-28.6-62.9z"/></svg>