<svg version="1.2" xmlns="http://www.w3.org/2000/svg" viewBox="0 0 363 342" width="363" height="342"><style>.a{fill:#e5f3ff}</style><path class="a" d="m178.8 108.4q-0.7 1.3-1.4 2.7-2 2.6-5 4-2.1 1-4.4 0.9-2.3 0.2-4.5-0.7-2.3-0.8-3.9-2.5-1.9-1.6-2.8-3.9-1.3-2.8-0.9-6 0.1-0.8 0.3-1.6 0.2-1.2 0.5-2.3 0.1-1.5 1-2.7 0.9-2.1 2.8-3.5 0.1-0.1 0.1-0.1 0.1-0.1 0.2-0.2 1.3-0.7 2.5-1.5 2-1 4.2-0.8 1.4-0.2 2.7 0.3 2.1 0.3 3.9 1.6 0.1 0.1 0.2 0.2c0.7 0.7 1.7 1.4 2.2 2.1l0.1 0.1q0.8 1.3 1.6 2.6c0.5 1.1 0.7 2.4 1 3.6q0.1 0.9 0.2 1.7 0.5 3.1-0.6 6zm-37.6 121.4c-3.1 0-5.3-1.3-6.6-3.1-0.6 1-1.4 1.9-2.3 2.7q-1.4 0.8-2.7 1.6-2.8 1.2-5.9 0.9-2.3-0.1-4.2-1.4-2.2-0.9-3.6-2.8-1.6-1.8-2-4.1-0.9-2.1-0.5-4.4l0.7-2.9q1.1-3 3.5-4.9 1.4-0.9 2.7-1.7 2.8-1.2 5.9-0.9 2.3 0.2 4.2 1.4 2.1 1 3.6 2.9 0.8 0.9 1.3 2c1.7-2.4 4.3-4.1 7.9-4.1 12.1 0 10.1 18.8-2 18.8zm75.4 18.2c-13.6 0-11.3-20.8 2.2-20.8 13.5 0 11.2 20.8-2.2 20.8zm43.1-113.8c-13.9 0-11.5-21.3 2.2-21.3 13.9 0 11.5 21.3-2.2 21.3zm92.8 27.2c-12.8 0-10.6-19.7 2-19.7 12.8 0 10.6 19.7-2 19.7zm-47.5 103.5c-13.1 0-10.9-20.2 2.1-20.2 13.1 0 10.9 20.2-2.1 20.2zm-75.2-86.5c-9.8 0-8.1-15.1 1.6-15.1 9.8 0 8.1 15.1-1.6 15.1zm-62.7 163.2c-12.2 0-10.1-18.7 2-18.7 12.1 0 10 18.7-2 18.7zm-133.4-73.7c-8.6 0-7.2-13.3 1.4-13.3 8.6 0 7.1 13.3-1.4 13.3zm38-130.1q-0.6 1.1-1.2 2.3-1.6 2.2-4.1 3.3-1.3 0.3-2.5 0.7-2.6 0.4-5-0.5-4.3-2.2-8.6-4.3-1.9-0.7-3.3-2.2-1.5-1.2-2.3-3.1-0.9-1.8-0.8-3.8-0.2-1.9 0.6-3.7 0.6-1.1 1.2-2.2 1.6-2.3 4.1-3.4 1.2-0.3 2.5-0.7 2.5-0.3 5 0.6l8.6 4.3q1.9 0.6 3.2 2.1 1.6 1.2 2.4 3.2 0.9 1.7 0.7 3.7 0.2 1.9-0.5 3.7zm86.8 22.4c-11.2 0-9.3-17.3 1.9-17.3 11.2 0 9.3 17.3-1.9 17.3zm34.7 110.5c-9.5 0-7.9-14.6 1.5-14.6 9.5 0 7.8 14.6-1.5 14.6zm42.8 56.5c-13 0-10.8-20 2.1-20 13 0 10.8 20-2.1 20zm92.8-9.6c-11.6 0-9.6-18 1.9-18 11.7 0 9.7 18-1.9 18zm-50.3-301.7q-0.6 1.2-1.3 2.4-1.2 1.8-3.1 2.8-1.1 0.9-2.5 1.1-1.1 0.4-2.3 0.5c-0.4 0.2-0.6 0.6-1 0.7-0.5 0.2-2.9 0.6-4.1 0.8q0 0 0 0-2.1 0.3-4.1-0.6-1.2-0.6-2.5-1.3-0.6-0.4-1-1c-1.3-1.2-1.7-1.4-2.6-3.5q0 0 0 0-0.1-0.1-0.1-0.2c0.1 0.3-0.7-2.1-0.8-3-0.2-1-0.1-2.1-0.1-3.1 0-2 1.2-4 2.1-5.7q0.1-0.1 0.2-0.3 0.1 0 0.1-0.1 0.1 0 0.1 0 0-0.1 0-0.1 1.1-1.1 2.1-2.2c1.9-1.6 3.8-2.1 6.1-2.7q0.3-0.1 0.7-0.1c1.1-0.1 2.1-0.1 3.2-0.1q0.2 0 0.4 0.1 1.5 0.2 3 0.7 0.1 0 0.3 0.1c2.5 1.2 3.2 1.7 5.1 3.7 0.4 0.4 0.7 1.1 1 1.5 0.3 0.4 0.7 1.1 0.9 1.6q1 1.9 0.8 4 0.2 2-0.6 4zm-14.3 8.3q0.7 0 1.4 0c-2.4 0.3-2.3 0.2-1.4 0zm-153.1 36.4q-1.1 2.6-3.3 4.4-2.1 2.2-4.3 4.3-1.6 1.4-3.7 1.9-1.9 0.7-4 0.4-2.1-0.2-3.8-1.3-2-0.8-3.3-2.5-0.7-1.2-1.4-2.4-1.1-2.6-0.8-5.3 0.3-1.3 0.6-2.6 1-2.7 3.2-4.5l4.3-4.3q1.6-1.4 3.7-1.8 1.9-0.8 4-0.5 2.1 0.2 3.8 1.3 2 0.8 3.3 2.6 0.7 1.2 1.5 2.4 1 2.5 0.8 5.3-0.3 1.3-0.6 2.6zm9.7 93.5q-0.8 1.9-2.4 3.1-1.6 1.4-3.6 1.8-1.9 0.7-3.9 0.4-1.2-0.3-2.5-0.6-2.5-1-4.3-3.1-0.7-1.1-1.4-2.3-1-2.4-0.8-5.1v-2.1q0.2-2 1.3-3.7 0.8-1.9 2.4-3.1 1.6-1.4 3.6-1.8 1.9-0.7 3.9-0.4 1.2 0.3 2.5 0.6 2.5 1 4.3 3.1 0.7 1.1 1.4 2.3 1 2.4 0.8 5.1v2.1q-0.2 2-1.3 3.7zm-111.2 55.1c-13.5 0-11.2-20.7 2.1-20.7 13.5 0 11.2 20.7-2.1 20.7zm86.9 108.1q-0.8 1.7-2.3 2.9-1.5 1.2-3.3 1.6-1.7 0.7-3.6 0.4-1.2-0.3-2.3-0.5-2.4-0.9-4-2.9-0.7-1.1-1.3-2.2-1-2.2-0.8-4.7v-4.3q0.2-1.9 1.2-3.4 0.7-1.7 2.3-2.9 1.4-1.3 3.3-1.6 1.7-0.7 3.6-0.4 1.1 0.3 2.3 0.5 2.4 0.9 4 2.9 0.6 1.1 1.3 2.1 1 2.3 0.7 4.8v4.3q-0.1 1.8-1.1 3.4zm126.7-255.6c-11.9 0-9.8-18.3 1.9-18.3 11.8 0 9.8 18.3-1.9 18.3z"/></svg>