<svg version="1.2" xmlns="http://www.w3.org/2000/svg" viewBox="0 0 363 342" width="363" height="342"><style>.a{fill:#e5f3ff}</style><path class="a" d="m184.3 233.7q0.8-1.3 1.5-2.7 1.9-2.6 4.9-4 2.2-1 4.5-0.9 2.3-0.2 4.5 0.7 2.3 0.8 3.9 2.5 1.9 1.5 2.8 3.9 1.2 2.8 0.9 5.9-0.2 0.9-0.3 1.7-0.2 1.1-0.5 2.2-0.2 1.5-1.1 2.8-0.9 2.1-2.8 3.5 0 0-0.1 0.1-0.1 0.1-0.2 0.2-1.2 0.7-2.5 1.5-2 0.9-4.1 0.8-1.4 0.2-2.8-0.3-2.1-0.3-3.8-1.6-0.1-0.1-0.2-0.2c-0.8-0.7-1.8-1.5-2.3-2.1v-0.1q-0.8-1.3-1.6-2.6c-0.6-1.1-0.8-2.4-1-3.6q-0.1-0.9-0.3-1.7-0.5-3.1 0.6-6zm37.7-121.3c3.1 0 5.2 1.2 6.5 3 0.7-1 1.4-1.9 2.4-2.7q1.3-0.8 2.7-1.6 2.8-1.2 5.8-0.9 2.4 0.2 4.3 1.4 2.1 0.9 3.6 2.8 1.6 1.8 2 4.1 0.8 2.2 0.5 4.5l-0.7 2.8q-1.1 3-3.5 5-1.4 0.8-2.7 1.6-2.8 1.2-5.9 0.9-2.3-0.2-4.2-1.4-2.2-0.9-3.6-2.9-0.8-0.9-1.3-1.9c-1.7 2.3-4.3 4-7.9 4-12.2 0-10.1-18.7 2-18.7zm-75.4-18.3c13.5 0 11.2 20.9-2.2 20.9-13.6 0-11.2-20.9 2.2-20.9zm-43.1 113.8c13.8 0 11.5 21.3-2.3 21.3-13.9 0-11.5-21.3 2.3-21.3zm-92.9-27.2c12.8 0 10.6 19.7-2 19.7-12.8 0-10.6-19.7 2-19.7zm47.5-103.5c13.1 0 10.9 20.2-2.1 20.2-13.1 0-10.9-20.2 2.1-20.2zm75.2 86.5c9.8 0 8.1 15.1-1.6 15.1-9.7 0-8.1-15.1 1.6-15.1zm62.8-163.2c12.1 0 10.1 18.8-2 18.8-12.2 0-10.1-18.8 2-18.8zm133.4 73.8c8.6 0 7.1 13.2-1.4 13.2-8.6 0-7.1-13.2 1.4-13.2zm-38 130q0.6-1.1 1.2-2.3 1.6-2.2 4.1-3.3 1.2-0.3 2.5-0.7 2.6-0.4 5 0.5 4.3 2.2 8.6 4.3 1.9 0.7 3.2 2.2 1.6 1.2 2.4 3.1 0.9 1.8 0.7 3.8 0.2 1.9-0.5 3.7-0.6 1.1-1.2 2.2-1.6 2.2-4.1 3.4-1.3 0.3-2.5 0.7-2.6 0.3-5-0.6l-8.6-4.3q-1.9-0.6-3.3-2.1-1.5-1.2-2.3-3.2-0.9-1.7-0.8-3.7-0.2-1.9 0.6-3.7zm-86.9-22.4c11.3 0 9.3 17.3-1.8 17.3-11.2 0-9.3-17.3 1.8-17.3zm-34.6-110.5c9.4 0 7.8 14.6-1.6 14.6-9.4 0-7.8-14.6 1.6-14.6zm-42.9-56.5c13 0 10.8 20.1-2.1 20.1-13 0-10.8-20.1 2.1-20.1zm-92.8 9.7c11.6 0 9.6 17.9-1.9 17.9-11.7 0-9.7-17.9 1.9-17.9zm50.3 301.6q0.6-1.2 1.3-2.4 1.2-1.8 3.1-2.8 1.2-0.9 2.6-1.1 1.1-0.4 2.2-0.5c0.4-0.2 0.6-0.6 1-0.7 0.5-0.2 2.9-0.6 4.1-0.9q0 0 0 0 2.1-0.2 4.1 0.6 1.2 0.7 2.5 1.4 0.6 0.3 1.1 1c1.3 1.2 1.7 1.4 2.5 3.5q0.1 0 0.1 0 0 0.1 0 0.2c-0.1-0.3 0.7 2 0.9 3 0.1 1 0 2 0 3.1 0 2-1.2 4-2.1 5.6q-0.1 0.2-0.2 0.3-0.1 0.1-0.1 0.1 0 0.1-0.1 0.1 0 0 0 0.1-1.1 1.1-2.1 2.2c-1.8 1.6-3.8 2.1-6.1 2.7q-0.3 0-0.7 0.1c-1 0-2.1 0.1-3.2 0q-0.1 0-0.3 0-1.6-0.3-3-0.7-0.2-0.1-0.4-0.2c-2.5-1.1-3.2-1.6-5.1-3.6-0.4-0.5-0.7-1.1-1-1.6-0.3-0.4-0.7-1-0.9-1.5q-0.9-2-0.8-4-0.2-2.1 0.6-4zm14.3-8.4q-0.7 0.1-1.4 0.1c2.5-0.3 2.3-0.2 1.4-0.1zm153.2-36.3q1-2.6 3.2-4.4 2.2-2.2 4.4-4.3 1.6-1.5 3.7-1.9 1.9-0.7 4-0.4 2.1 0.1 3.8 1.3 1.9 0.8 3.2 2.5 0.8 1.2 1.5 2.4 1.1 2.6 0.8 5.3-0.3 1.3-0.6 2.6-1 2.7-3.2 4.5l-4.3 4.3q-1.7 1.4-3.7 1.8-2 0.7-4 0.4-2.1-0.1-3.9-1.2-1.9-0.8-3.2-2.6-0.7-1.2-1.5-2.4-1.1-2.5-0.8-5.3 0.3-1.3 0.6-2.6zm-9.8-93.5q0.8-1.9 2.5-3.1 1.6-1.4 3.6-1.8 1.8-0.7 3.8-0.4 1.3 0.3 2.5 0.6 2.6 1 4.3 3.1 0.7 1.1 1.4 2.3 1.1 2.4 0.8 5.1v2.1q-0.1 2-1.2 3.7-0.8 1.9-2.5 3.1-1.5 1.4-3.5 1.8-1.9 0.7-3.9 0.4-1.2-0.3-2.5-0.6-2.6-1-4.3-3.1-0.7-1.1-1.4-2.3-1.1-2.4-0.8-5.1v-2.1q0.1-2 1.2-3.7zm111.3-55.1c13.5 0 11.2 20.7-2.1 20.7-13.5 0-11.2-20.7 2.1-20.7zm-86.9-108q0.7-1.8 2.3-2.9 1.4-1.3 3.3-1.7 1.7-0.6 3.6-0.4 1.1 0.3 2.3 0.6 2.4 0.9 4 2.9 0.6 1 1.3 2.1 1 2.3 0.7 4.7v4.3q-0.1 1.9-1.1 3.4-0.7 1.8-2.3 2.9-1.5 1.3-3.3 1.7-1.7 0.6-3.6 0.4-1.2-0.3-2.3-0.6-2.4-0.9-4-2.9-0.7-1-1.3-2.1-1-2.3-0.7-4.7v-4.3q0.1-1.9 1.1-3.4zm-126.7 255.5c11.8 0 9.8 18.2-2 18.2-11.8 0-9.8-18.2 2-18.2z"/></svg>