<svg version="1.2" xmlns="http://www.w3.org/2000/svg" viewBox="0 0 344 424" width="344" height="424">
	<title>Shape</title>
	<style>
		.s0 { fill: #eb7f4e } 
		.s1 { fill: #f2cd5d } 
	</style>
	<g id="Folder 1">
		<path id="Shape" class="s0" d="m205.7 362c-1.4-7.1-2.3-15.1-3.1-23.7-0.8-8.8-1.7-18.3-3.8-28.1-2-9.8-5.2-20.2-11.2-29.6-3-4.7-6.7-9.1-11.2-12.8-4.4-3.7-9.4-6.6-14.6-8.8-14.1-5.9-28.7-7.4-42.4-10.5-13.5-3.1-26.6-8.1-38.6-15.2-24.1-14-44.1-35.1-56.6-60-5.5-11.1-9.6-22.9-11.9-35.1-2.3-12.2-2.9-24.6-2.1-37.1q0.3-2.9 0.7-5.9 0.5-3 1.1-6c5.6-29.1 19.9-56.2 40.3-77.6 1.1-1.2 2.3-2.4 3.4-3.5q1.7-1.8 3.4-3.6c1.5-1.6 0.8-2.9-1.1-1.8-2 1.2-4.1 2.4-6.2 4-2.1 1.7-4 3.7-6.1 5.5-2 1.9-3.8 4-5.6 6.1-25.9 30.1-38.9 71.4-33.5 110.6 0.2 1.3 0.6 2.7 0.6 4 1 9.1 2.8 18.2 6 26.8 1.3 4.4 3.4 8.5 5.2 12.8 1 2 2.1 4.1 3.2 6.1l1.6 3.1 1.8 2.9c1.2 1.9 2.4 3.9 3.6 5.8l4 5.7c1.3 1.9 2.7 3.6 4.2 5.4 1.4 1.8 2.8 3.7 4.3 5.4 3.1 3.4 6 6.9 9.4 10.1 3.1 3.3 6.5 6.4 9.9 9.5 15.6 11.8 32.6 21.7 51.4 27.4 5.3 1.8 10.9 2.4 16.3 3.4 7.1 1.2 14.2 2.2 21 4 6.9 1.8 13.6 4.4 19.1 8.8 1.2 0.9 2.5 1.9 3.9 3 1.2 1.1 2.6 2 3.7 3.1 5 4.4 8.7 10.1 11.3 16.3 2.6 6.1 4.1 12.7 5.3 19.4 1.8 9.9 2.5 20.1 3.4 30.4 0.9 10.3 2.1 20.7 4.8 31 1.3 4.8 2.9 9.4 5 14q3.1 6.7 7.3 13.1c2.9 4.6 7.8 8.8 12.8 12 11.4 7.2 24.9 9.8 38 9.4 1.4-0.1 2.9-0.1 4.3-0.2 7-0.9 13.9-2.7 20.5-5.2 6.5-2.5 12.7-5.7 18.6-9.2 11.7-7.1 22.3-15.6 32.6-24.2 1.1-0.9 1.9-2.5 2.3-3.4 0.2-0.5-0.8-0.6-1.6-0.2-3.5 1.9-7.3 3.5-10.8 6-9.6 7-19.5 13.7-30.1 18.9-10.6 5.2-21.8 8.8-33.3 9.6-6.6 0.4-13.3 0.1-19.8-1.4-3.3-0.6-6.4-1.8-9.6-3.1-3.1-1.4-6.2-3-9-5.1-2.8-2.1-5.5-4.5-7.9-7.4-2.5-2.8-4.5-6.1-6.4-9.7-3.7-7.2-6.2-15.7-7.8-25.2z"/>
		<path id="Shape" class="s1" d="m138.2 274.5c0.5 7.3 3 14.7 7.8 20.3 4.7 5.6 11.9 9.3 19.3 9.1 7.4-0.2 14.7-4.7 17.5-11.5 3.2-7.7 0.6-16.7 3-24.6 1.8-6.2 6.5-11.2 11.7-15 2.3-1.8 4.8-3.4 6.9-5.5 2.1-2 3.8-4.7 4.1-7.6 0.3-3.2-1.2-6.5-3.5-8.8-4.7-4.8-13.2-7.1-19.7-5.3-12.9 3.4-25.5 6.1-35.2 16.1-8.4 8.6-12.8 20.8-11.9 32.8z"/>
	</g>
</svg>