<svg version="1.2" xmlns="http://www.w3.org/2000/svg" viewBox="0 0 344 424" width="344" height="424">
	<title>Shape</title>
	<style>
		.s0 { fill: #62b2ac } 
		.s1 { fill: #f2cd5d } 
	</style>
	<g id="Folder 1">
		<path id="Shape" class="s0" d="m204.6 59.7c-1.3 7.1-2.2 15-3 23.7-0.8 8.8-1.8 18.3-3.8 28.1-2.1 9.8-5.2 20.2-11.3 29.6-3 4.7-6.7 9.1-11.1 12.8-4.4 3.7-9.4 6.6-14.6 8.8-14.1 5.9-28.8 7.4-42.4 10.5-13.6 3.1-26.6 8.1-38.7 15.2-24 14-44 35.1-56.5 60-5.6 11.1-9.6 23-11.9 35.1-2.4 12.2-3 24.7-2.1 37.1q0.2 3 0.6 6 0.6 3 1.2 5.9c5.5 29.2 19.8 56.3 40.2 77.7 1.1 1.2 2.3 2.3 3.4 3.5q1.7 1.8 3.4 3.5c1.5 1.7 0.8 3-1 1.9-2-1.2-4.2-2.4-6.2-4-2.1-1.7-4.1-3.7-6.1-5.6-2.1-1.8-3.9-4-5.7-6.1-25.9-30.1-38.8-71.4-33.4-110.5 0.2-1.4 0.5-2.8 0.6-4.1 0.9-9.1 2.7-18.1 5.9-26.8 1.4-4.4 3.4-8.5 5.2-12.8 1-2 2.1-4 3.2-6.1l1.6-3 1.8-3c1.2-1.9 2.4-3.9 3.7-5.8l3.9-5.6c1.3-2 2.8-3.7 4.2-5.5 1.5-1.8 2.8-3.6 4.4-5.4 3-3.3 6-6.9 9.3-10 3.1-3.4 6.6-6.4 9.9-9.6 15.6-11.8 32.6-21.7 51.5-27.4 5.2-1.8 10.9-2.4 16.3-3.4 7.1-1.2 14.1-2.2 21-4 6.8-1.8 13.5-4.4 19.1-8.8 1.2-0.9 2.5-1.9 3.8-3 1.2-1.1 2.7-2 3.8-3.1 5-4.4 8.6-10.1 11.2-16.3 2.6-6.1 4.1-12.7 5.3-19.4 1.8-9.9 2.6-20.1 3.4-30.4 0.9-10.3 2.1-20.8 4.9-31 1.3-4.8 2.9-9.5 4.9-14q3.1-6.8 7.3-13.2c2.9-4.5 7.9-8.7 12.9-11.9 11.3-7.3 24.9-9.9 37.9-9.4 1.5 0.1 2.9 0.1 4.4 0.2 7 0.8 13.9 2.7 20.4 5.2 6.5 2.5 12.7 5.7 18.6 9.2 11.8 7.1 22.3 15.6 32.6 24.2 1.2 0.9 2 2.5 2.3 3.4 0.2 0.5-0.7 0.6-1.5 0.1-3.5-1.8-7.3-3.4-10.8-6-9.7-6.9-19.6-13.6-30.2-18.8-10.5-5.2-21.8-8.8-33.3-9.6-6.6-0.5-13.2-0.2-19.7 1.4-3.3 0.6-6.5 1.8-9.6 3-3.1 1.5-6.2 3-9 5.2-2.9 2.1-5.6 4.5-7.9 7.4-2.5 2.8-4.6 6.1-6.4 9.7-3.8 7.2-6.3 15.7-7.9 25.2z"/>
		<path id="Shape" class="s1" d="m138.1 149.2c0.5-7.3 3-14.7 7.8-20.3 4.8-5.6 12-9.3 19.3-9.1 7.4 0.2 14.7 4.7 17.6 11.5 3.1 7.7 0.5 16.7 2.9 24.6 1.9 6.2 6.6 11.2 11.7 15 2.4 1.8 4.9 3.4 7 5.5 2.1 2 3.8 4.7 4 7.6 0.4 3.2-1.1 6.5-3.4 8.8-4.8 4.8-13.2 7.1-19.8 5.4-12.9-3.5-25.5-6.2-35.1-16.2-8.4-8.6-12.8-20.8-12-32.8z"/>
	</g>
</svg>