<svg version="1.2" xmlns="http://www.w3.org/2000/svg" viewBox="0 0 279 494" width="279" height="494"><style>.a{fill:#e89f7e}</style><path class="a" d="m173.2 135.9c-8.3 7-19 15-30.9 23.4-11.8 8.4-24.8 17.4-37.3 27.4-16.9 13.4-32.9 28.8-45 47.3-12.1 18.5-19 39.6-24.2 60.5-4.7 18.6-7.9 37.6-9.6 56.6-0.3 3.1-0.8 6.2-1.3 9.2-2.8 22.6-4.3 45.3-4.5 67.9 0 2.5 0.2 5 0.3 7.5 0.2 1.7 1.6 2 2.1 0.4 0.5-1.7 1.1-3.5 1.3-5.4 0.5-4 0.9-8.1 1.2-12.2 1.8-29.3 4-58.6 7.5-87.6 0.1-1 0.1-2.1 0.3-3.1 3.1-13.2 5.7-26.5 9.2-39.7 3.5-13.1 7.9-26.1 14.9-37.6 3.1-6.5 6.9-12.5 11.2-18.1 4.3-5.6 9.2-10.8 14.2-15.7 2.9-2.8 5.5-6 8.4-8.9 7.5-7.5 15.2-15 24.4-20.8 2-1.3 4.2-3.1 6-4.7 7.6-7 16.3-12.1 25-17.8 12.8-8.5 25.5-17.6 37.3-27.8 5.5-4.8 10.5-9.9 16.1-14.6 1.5-1.2 3-2.7 4.4-4.3 1.4-1.6 2.8-3.2 4.1-4.9 6.1-7.3 11.5-15.2 16-23.7 0.5-0.9 1.1-1.8 1.5-2.8 2.2-4.7 3.9-9.6 5.5-14.5 1.4-5 2.7-10.1 3.4-15.2 0.8-5.2 1-10.4 1-15.6-0.2-5.2-0.6-10.4-1.8-15.4-0.3-1.2-1.2-2.2-1.8-2.8-0.3-0.3-0.8 0.4-0.9 1.1q-0.2 2.2-0.3 4.6c-0.2 1.5-0.4 3.1-0.2 4.6 0.9 17.7-4.2 35.1-12.2 50.6-9.3 17.8-22.3 33.7-45.3 52.1zm-20.3-22.5c-8.4 7-19 14.9-30.9 23.3-11.8 8.5-24.9 17.5-37.3 27.4-16.9 13.5-33 28.8-45 47.3-12.1 18.6-19 39.6-24.3 60.5-4.6 18.7-7.8 37.6-9.6 56.7-0.2 3-0.8 6.1-1.2 9.2-2.8 22.5-4.3 45.2-4.5 67.9-0.1 2.5 0.1 5 0.3 7.4 0.1 1.7 1.6 2 2 0.4 0.5-1.7 1.1-3.4 1.4-5.3 0.5-4.1 0.9-8.2 1.1-12.3 1.9-29.3 4.1-58.5 7.5-87.6 0.2-1 0.2-2.1 0.4-3 3.1-13.2 5.7-26.6 9.2-39.7 3.4-13.2 7.8-26.2 14.9-37.7 3-6.4 6.9-12.5 11.2-18.1 4.3-5.6 9.1-10.8 14.2-15.7 2.8-2.8 5.5-5.9 8.4-8.8 7.5-7.6 15.2-15 24.4-20.9 2-1.3 4.2-3 6-4.7 7.6-6.9 16.3-12.1 24.9-17.8 12.9-8.4 25.5-17.6 37.3-27.8 5.6-4.8 10.6-9.9 16.2-14.5 1.5-1.3 3-2.7 4.3-4.4 1.5-1.5 2.8-3.2 4.2-4.9 6-7.3 11.4-15.2 16-23.6 0.4-1 1-1.9 1.5-2.8 2.2-4.7 3.9-9.7 5.5-14.6 1.4-5 2.7-10 3.4-15.2 0.8-5.1 1-10.4 1-15.5-0.2-5.2-0.7-10.4-1.9-15.5-0.2-1.1-1.1-2.2-1.7-2.7-0.3-0.3-0.9 0.3-0.9 1q-0.2 2.3-0.4 4.6c-0.1 1.6-0.3 3.1-0.2 4.7 1 17.6-4.1 35-12.1 50.5-9.4 17.8-22.3 33.7-45.3 52.2zm63.3 79.3c-8.4 7-19 14.9-30.9 23.4-11.9 8.4-24.9 17.4-37.3 27.4-17 13.4-33 28.7-45.1 47.2-12 18.6-18.9 39.7-24.2 60.5-4.7 18.7-7.8 37.7-9.6 56.7-0.3 3.1-0.8 6.1-1.2 9.2-2.9 22.6-4.3 45.3-4.5 67.9-0.1 2.5 0.1 5 0.3 7.5 0.1 1.6 1.6 1.9 2 0.4 0.5-1.7 1.1-3.5 1.3-5.4 0.5-4 1-8.1 1.2-12.2 1.9-29.4 4-58.6 7.5-87.6 0.2-1.1 0.2-2.1 0.4-3.1 3.1-13.2 5.7-26.5 9.2-39.7 3.4-13.1 7.8-26.2 14.9-37.6 3-6.5 6.9-12.5 11.2-18.1 4.3-5.7 9.1-10.8 14.2-15.8 2.8-2.7 5.5-5.9 8.4-8.8 7.4-7.5 15.2-15 24.3-20.8 2.1-1.3 4.2-3.1 6-4.8 7.7-6.9 16.4-12.1 25-17.7 12.8-8.5 25.5-17.6 37.3-27.9 5.5-4.7 10.6-9.9 16.2-14.5 1.5-1.2 2.9-2.7 4.3-4.3 1.4-1.6 2.8-3.3 4.2-4.9 6-7.3 11.4-15.3 15.9-23.7 0.5-1 1.1-1.8 1.5-2.8 2.2-4.7 4-9.6 5.6-14.6 1.4-5 2.7-10 3.3-15.2 0.9-5.1 1.1-10.3 1.1-15.5-0.3-5.2-0.7-10.4-1.9-15.5-0.2-1.1-1.1-2.2-1.7-2.7-0.3-0.3-0.9 0.4-0.9 1.1q-0.2 2.2-0.4 4.6c-0.1 1.5-0.3 3.1-0.2 4.6 1 17.7-4.1 35.1-12.2 50.6-9.3 17.7-22.2 33.6-45.2 52.1zm-20.4-22.5c-8.3 7-19 14.9-30.9 23.3-11.8 8.4-24.8 17.4-37.3 27.4-16.9 13.4-32.9 28.8-45 47.3-12.1 18.6-19 39.6-24.2 60.5-4.7 18.7-7.9 37.6-9.6 56.6-0.3 3.1-0.8 6.2-1.2 9.2-2.9 22.6-4.3 45.3-4.6 67.9 0 2.6 0.2 5.1 0.4 7.5 0.1 1.7 1.5 2 2 0.4 0.5-1.7 1.1-3.5 1.3-5.4 0.5-4 0.9-8.1 1.2-12.2 1.8-29.3 4-58.5 7.5-87.6 0.1-1 0.1-2.1 0.4-3 3-13.2 5.6-26.6 9.1-39.8 3.5-13.1 7.9-26.1 14.9-37.6 3.1-6.5 6.9-12.5 11.2-18.1 4.4-5.6 9.2-10.8 14.3-15.7 2.8-2.8 5.4-6 8.3-8.8 7.5-7.6 15.2-15 24.4-20.9 2-1.3 4.2-3.1 6-4.7 7.6-7 16.4-12.1 25-17.8 12.8-8.5 25.5-17.6 37.3-27.8 5.5-4.8 10.5-9.9 16.2-14.6 1.4-1.2 2.9-2.7 4.3-4.3 1.4-1.6 2.8-3.2 4.1-4.9 6.1-7.3 11.5-15.2 16-23.7 0.5-0.9 1.1-1.8 1.5-2.8 2.2-4.7 3.9-9.6 5.5-14.5 1.4-5 2.7-10.1 3.4-15.2 0.9-5.2 1-10.4 1-15.6-0.2-5.2-0.6-10.4-1.8-15.4-0.3-1.1-1.2-2.2-1.8-2.8-0.3-0.2-0.8 0.4-0.9 1.1q-0.1 2.3-0.3 4.6c-0.2 1.5-0.4 3.1-0.2 4.7 1 17.6-4.2 35-12.2 50.5-9.3 17.8-22.3 33.7-45.3 52.2z"/></svg>