<svg version="1.2" xmlns="http://www.w3.org/2000/svg" viewBox="0 0 385 377" width="385" height="377"><style>.a{fill:#62b2ac}</style><path class="a" d="m332.7 138.2c-6.8 2.4-14.5 4.6-23 6.7-8.5 2.2-17.7 4.5-27.2 8.1-9.3 3.6-19.1 8.3-27.5 15.7-4.1 3.8-7.9 8.1-10.8 13.1-3 4.9-5.1 10.3-6.4 15.7-3.7 14.9-2.9 29.6-3.8 43.5-1 13.9-3.9 27.6-9 40.6-10.1 25.9-27.8 48.9-50.5 65.2-10.1 7.2-21.2 13-32.8 17.2-11.7 4.2-23.9 6.8-36.3 7.9q-3 0.2-6 0.3-3.1-0.1-6.1-0.2c-29.6-1-58.7-10.9-83-27.7-1.4-0.9-2.7-1.9-4-2.8q-2-1.4-4-2.8c-1.9-1.2-3.1-0.3-1.7 1.3 1.5 1.8 3 3.7 4.9 5.5 2.1 1.8 4.3 3.4 6.5 5.2 2.1 1.7 4.5 3.2 6.9 4.6 33.8 20.9 76.6 27.2 114.5 15.8 1.3-0.4 2.6-1 3.9-1.3 8.8-2.3 17.5-5.5 25.5-10 4.2-2 7.9-4.7 11.8-7.1 1.9-1.3 3.7-2.7 5.6-4.1l2.7-2.1 2.7-2.2c1.7-1.5 3.5-3 5.2-4.5l4.9-4.8c1.7-1.6 3.2-3.3 4.8-5 1.5-1.7 3.1-3.4 4.6-5.1 2.8-3.6 5.9-7.1 8.5-10.8 2.8-3.7 5.3-7.5 7.9-11.3 9.2-17.3 16.3-35.6 19-55.1 0.9-5.5 0.7-11.1 0.8-16.6 0.1-7.2 0-14.3 0.7-21.4 0.7-7 2.3-14 5.7-20.2 0.7-1.3 1.5-2.8 2.3-4.3 0.9-1.4 1.6-2.9 2.6-4.2 3.5-5.6 8.6-10.1 14.3-13.6 5.6-3.6 11.9-6.1 18.3-8.3 9.6-3.3 19.5-5.6 29.6-8.1 10-2.5 20.1-5.3 29.8-9.6 4.6-2 8.9-4.4 13.1-7.1q6.2-4.1 11.9-9.2c4-3.6 7.4-9.1 9.7-14.6 5.5-12.3 5.9-26.1 3.4-38.9-0.3-1.5-0.5-2.9-0.9-4.3-1.9-6.8-4.8-13.3-8.3-19.4-3.5-6-7.6-11.6-12-16.9-8.8-10.5-18.9-19.6-29-28.4-1.1-1-2.7-1.6-3.7-1.8-0.5-0.1-0.4 0.9 0.1 1.6 2.4 3.2 4.6 6.7 7.6 9.7 8.4 8.5 16.5 17.2 23.3 26.8 6.8 9.7 12.2 20.2 14.7 31.4 1.5 6.5 2.2 13.1 1.8 19.7-0.2 3.4-0.8 6.7-1.6 10-0.9 3.3-2 6.6-3.7 9.7-1.6 3.1-3.6 6.2-6.1 9-2.4 2.8-5.3 5.4-8.5 7.8-6.5 4.8-14.6 8.6-23.7 11.7z"/></svg>